<svg xmlns="http://www.w3.org/2000/svg" width="1080.000000pt" height="366.000000pt" version="1.0" viewBox="0 0 1080.000000 366.000000"><path d="M240 18v10h574V8H240v10zM240 58v10h574V48H240v10zM239 100v10h575V90H239v10zM240 139v10h574v-20H240v10zM240 180v10h574v-20H240v10zM5.7 301.6c-.4.4-.7 4.3-.7 8.6v7.8h21v3.8c0 2.2.3 8.7.6 14.5l.7 10.6-10.9.3-10.9.3v16l50.5.7c56.1.9 75.8.4 84-1.8 9.2-2.6 13.6-8.3 12.8-16.6-.5-5.1-2.4-7.9-7-10.8l-2.8-1.7 4-3.2c4.9-3.9 6.7-8.9 5.1-14.7-1.4-5.2-4.2-8.1-11-11.3l-5.6-2.6-64.5-.3c-35.6-.1-64.9 0-65.3.4zm95.4 17.4c1.1.6 1.9 2.1 1.9 3.5 0 3.6-2.8 4.5-13.8 4.5-10.9 0-11.2-.2-11.2-6.1V318h10.6c5.8 0 11.4.5 12.5 1zm-8.8 20c9.5 0 9.8.1 10.9 2.5 2 4.5-.3 5.6-13.6 6.2l-11.6.6V343c0-4.9.1-5.2 2.3-4.6 1.2.3 6.6.6 12 .6zM162.8 303.2c-3.8 2-3.8 2-3.8 8.4v6.4h5.4c2.9 0 8.1.3 11.5.6l6.1.7v28.6l-11.7.3-11.8.3.2 6.9c.2 3.8.6 7.3 1 7.7.5.4 22 .9 48 1.1l47.2.3.6-3.2c.3-1.8.3-5.5-.1-8.3l-.7-5h-4.1c-2.2 0-7.1-.3-10.8-.7l-6.8-.6V318h9.3c13.8 0 13.7 0 13.7-7.5 0-10.5 4.8-9.5-45.4-9.4-42.4 0-44.2.1-47.8 2.1z"/><path d="M352 304c0 1.6-.1 3-.2 3-.2 0-2.8-1-5.8-2.2-5.1-2.1-7-2.3-28-2.2-18.1 0-23.8.3-28.9 1.7-27.6 7.4-37.4 31.7-19.3 47.8 2.6 2.3 7 5.2 9.8 6.5 16.3 7.2 52.6 8.2 70.9 1.9l7.6-2.6 3.5 3c3.4 3 3.8 3.1 13.2 3.1 6.3 0 10.2-.4 11-1.2.8-.8 1.2-4.6 1.2-10.5v-9.2l10.3-.3 10.2-.3.3-6.3.3-6.2H319v12l6.8.1c3.7 0 9 .4 11.7.8l5 .6-3 2c-4.3 2.9-19.1 2.9-23.2-.1-4.5-3.3-6.5-8-6-14.3.3-4.7.9-5.9 3.9-8.6 3-2.8 4.4-3.3 10.9-3.9 11.5-1 21.5.2 24.9 3.1 2.7 2.2 3.4 2.3 19.4 2.3H386V302.3l-11.2-.6c-6.2-.4-13.9-.7-17-.7-5.8 0-5.8 0-5.8 3zM414.6 307.9c-.9 10.3-1.1 10.1 11 10.1H436v29h-9.4c-5.2 0-10.1.3-11 .6-2 .8-2.3 13.6-.3 15.2.8.7 22.1 1.2 64.7 1.4 58.1.3 64 .1 69.1-1.4 7-2.2 11.3-6.1 13-11.6 1.7-5.9-1-12.8-6.3-15.6l-3.6-2 4.5-4c3.8-3.4 4.6-4.8 5-8.6 1-9.3-4.3-15.4-16.2-18.5-5-1.3-15.3-1.5-68.1-1.5h-62.1l-.7 6.9zM512 320c.5.8 1 1.9 1 2.5 0 3.4-2 4-13.5 4.3l-11.5.4v-9.4l11.5.4c8.9.2 11.8.6 12.5 1.8zm-.1 20.5c.8.8 1.1 2.3.7 3.8-.5 2.2-1.2 2.5-7.3 3-3.8.4-9.2.7-12 .7H488v-9.5l11.2.3c7.7.2 11.7.8 12.7 1.7zM634 303.4c-1.9 1.3-10.8 10.2-19.7 19.7-24.2 26.1-21 23.8-32.8 24.1-9.6.3-9.9.4-10.5 2.7-.6 2.5.2 12.6 1.1 13.5.8.9 50.5 1.9 58.2 1.2l7.7-.8V356c0-9.1.2-8.9-12-9l-7.5-.1 3.4-3.1 3.5-3.1 15.9.6c14.8.6 16.2.8 18.5 2.9l2.4 2.3-8.5.5c-4.7.3-8.9.9-9.3 1.3-1 1-1.1 14.3-.1 15.3.9.9 69.4.7 86.5-.3l11.3-.6-.3-7.6-.3-7.6-10.1-.5-10.1-.5-22.3-22.8-22.2-22.7h-19.7c-19 0-19.7.1-23.1 2.4zm11.4 24.2c1.4 1.8 2.6 3.5 2.6 3.8 0 .3-3.1.6-7 .6-8.1 0-8.6-.8-3.8-5.7 3.4-3.5 4.2-3.4 8.2 1.3zM760 301.9l-8.5.6-.3 4c-.2 2.1-.1 5.4.3 7.2.5 3 .9 3.3 4.4 3.3 2.1 0 6.6.3 10 .6l6.2.7-.3 14.6-.3 14.6-10 .5-10 .5v15l21.3.8c11.7.4 25.2.4 30 0l8.7-.8.3-6.5c.1-3.6-.2-7.2-.8-8-.7-1.1-3.4-1.6-10.5-1.8l-9.5-.4v-27.2l6.8 6.6c3.7 3.7 14.8 13.9 24.7 22.8l18 16.1 29.7-.3c16.3-.2 30-.7 30.4-1 .4-.4.9-11.1 1.2-23.8l.5-23h9.2c11.3 0 12-.6 11.2-8.6-.3-3.1-.9-5.9-1.2-6.3-1-.9-49.5-1.3-55.1-.4l-4.9.8-.3 7.1c-.3 8.4-.4 8.4 12 8.4h7.6l.7 6.2c.4 3.5.5 9.2.3 12.8l-.3 6.5L869 332c-6.9-6.3-17.3-15.9-23.2-21.3l-10.6-9.7-33.3.2c-18.4.1-37.2.4-41.9.7zM1019 303.8c0 1.8-.2 3.2-.5 3.2-.2 0-2.8-1-5.7-2.2-4.9-2.1-6.8-2.2-27.3-2.2-23.8 0-30.4.8-39 5.1-7.1 3.6-11 6.7-14.4 11.7-12.3 17.8.1 37.6 26.9 42.9 18.8 3.8 44.1 3 58.1-1.9l7.8-2.7 3.6 3.1c3.5 3.1 3.8 3.2 13.5 3.2 6.8 0 10.1-.4 10.7-1.3.4-.6.9-5.4 1.1-10.4l.4-9.3h9.3c10.9 0 11.8-.6 11.3-7.7l-.3-4.8-44.2-.3-44.3-.2v12l6.8.1c3.7 0 9 .4 11.7.8l5 .6-3 2c-4.2 2.8-18.6 2.9-23.2.1-4.8-3-6.7-7.2-6.1-14.1.4-5.1.9-6.2 4-9.1 4.3-3.9 11.2-5 24.3-3.9 7 .6 9.2 1.2 11.5 3.1 2.7 2.3 3.5 2.4 17.8 2.4 8.3 0 15.7-.3 16.6-.6 1.3-.5 1.6-2.5 1.6-11V302h-4.8c-2.7 0-10.4-.3-17-.7l-12.2-.6v3.1z"/></svg>