<svg xmlns="http://www.w3.org/2000/svg" width="150" height="259.4664" viewBox="0 0 150 259.4664">
  <g id="be4df280-74eb-45ce-9800-69519f5d11c9" data-name="Layer 2">
    <g id="bde12656-1e4b-41d1-bbc0-537f41f58762" data-name="Layer 1">
      <g>
        <path d="M130.95,103.873a1.8005,1.8005,0,0,1,1.7931,1.8419c-.1248,7.1661-1.8057,8.7033-24.45,23.0309-29.2164,16.0292-17.666,56.3785-10.8711,84.015S91.986,259.4664,75,259.4664,45.7837,240.3973,52.578,212.7608s18.3452-67.9858-10.8709-84.015c-22.6447-14.3276-24.3256-15.8648-24.45-23.0309A1.8007,1.8007,0,0,1,19.05,103.873h111.9Zm-65.4621,122.98A9.5123,9.5123,0,1,0,75,217.3406,9.5124,9.5124,0,0,0,65.4878,226.8529Z" style="fill: #ffc300"/>
        <path d="M127.7817,91.3377,75,57.0156,22.2181,91.3377a3.3293,3.3293,0,0,1-5.08-2.1418L.0593,3.3133A2.7628,2.7628,0,0,1,4.9777,1.1146L41.5215,49.74,72.5876,17.082a3.3293,3.3293,0,0,1,4.8245,0L108.4782,49.74,145.0223,1.1146a2.7628,2.7628,0,0,1,4.9184,2.1987L132.8621,89.196A3.3293,3.3293,0,0,1,127.7817,91.3377Z" style="fill: #fff"/>
      </g>
    </g>
  </g>
</svg>
