<?xml version="1.0" encoding="utf-8"?>
<!-- Generator: Adobe Illustrator 23.1.0, SVG Export Plug-In . SVG Version: 6.00 Build 0)  -->
<svg version="1.1" id="Layer_1" xmlns="http://www.w3.org/2000/svg" xmlns:xlink="http://www.w3.org/1999/xlink" x="0px" y="0px"
	 viewBox="0 0 137.3 32" style="enable-background:new 0 0 137.3 32;" xml:space="preserve">
<style type="text/css">
	.st0{clip-path:url(#SVGID_2_);}
	.st1{fill:#FFFFFF;}
	.st2{clip-path:url(#SVGID_4_);}
</style>
<title>Signature - YG FAMILY</title>
<g>
	<g id="Layer_1-2">
		<g id="Signature_-_YG_FAMILY">
			<g>
				<defs>
					<rect id="SVGID_1_" width="137.3" height="32"/>
				</defs>
				<clipPath id="SVGID_2_">
					<use xlink:href="#SVGID_1_"  style="overflow:visible;"/>
				</clipPath>
				<g class="st0">
					<polygon class="st1" points="80.5,9.8 80.5,13.7 77.5,13.7 77.5,9.8 73.3,0.2 76.5,0.2 79,6.4 81.5,0.2 84.7,0.2 					"/>
					<g>
						<defs>
							<rect id="SVGID_3_" width="137.3" height="32"/>
						</defs>
						<clipPath id="SVGID_4_">
							<use xlink:href="#SVGID_3_"  style="overflow:visible;"/>
						</clipPath>
						<g class="st2">
							<path class="st1" d="M90.3,13.9c-3.3,0-4.9-1.7-4.9-4.1V4.1c0-2.5,1.7-4.1,4.9-4.1c1.4,0,2.9,0.2,4.3,0.4l-0.4,2.7
								c-1.3-0.2-2.6-0.3-3.9-0.3c-1.5,0-1.9,0.8-1.9,1.8v4.6c-0.1,0.9,0.5,1.8,1.4,1.9c0.2,0,0.3,0,0.5,0c0.6,0,1.2,0,1.8-0.1V6.9
								H95v6.3C93.5,13.7,91.9,13.9,90.3,13.9"/>
							<polygon class="st1" points="74.6,31.9 74.6,18.4 83.2,18.4 83.2,21.1 77.6,21.1 77.6,24 82.7,24 82.7,26.7 77.6,26.7 
								77.6,31.9 							"/>
							<path class="st1" d="M95.4,31.9h-3.2l-0.7-2.6H87l-0.7,2.6h-3.1l4.1-13.5h4L95.4,31.9z M87.7,26.8h3.1l-1.5-5.6L87.7,26.8z"
								/>
							<polygon class="st1" points="99.9,24.4 99.7,31.9 96.8,31.9 97.3,18.4 100.3,18.4 103.6,27 106.8,18.4 109.9,18.4 
								110.4,31.9 107.5,31.9 107.3,24.4 104.9,30.2 102.2,30.2 							"/>
							<rect x="112.9" y="18.4" class="st1" width="3" height="13.5"/>
							<polygon class="st1" points="118.7,31.9 118.7,18.4 121.8,18.4 121.8,29.2 127.1,29.2 127.1,31.9 							"/>
							<polygon class="st1" points="133.1,28 133.1,31.9 130.1,31.9 130.1,28 125.9,18.4 129.1,18.4 131.6,24.7 134.1,18.4 
								137.3,18.4 							"/>
							<polygon class="st1" points="0,0.1 0,18.2 18.1,0.1 							"/>
							<polygon class="st1" points="32,0.1 0,32 14.5,32 32,14.6 49.4,32 63.9,32 63.9,14.7 54.4,14.7 54.4,22.8 41.1,9.4 63.9,9.4 
								63.9,0.1 							"/>
						</g>
					</g>
				</g>
			</g>
		</g>
	</g>
</g>
</svg>
